<!--?xml version="1.0" standalone="no"?-->
              <svg id="sw-js-blob-svg" viewBox="0 0 100 100" xmlns="http://www.w3.org/2000/svg" version="1.1">
                    <defs> 
                        <linearGradient id="sw-gradient" x1="0" x2="1" y1="1" y2="0">
                            <stop id="stop1" stop-color="rgba(248, 117, 55, 1)" offset="0%"></stop>
                            <stop id="stop2" stop-color="rgba(251, 168, 31, 1)" offset="100%"></stop>
                        </linearGradient>
                    </defs>
                <path fill="url(#sw-gradient)" d="M22.1,-26.1C27.8,-21.6,31.1,-13.8,33.8,-5C36.4,3.8,38.5,13.6,35,20.7C31.5,27.9,22.5,32.4,12.9,36.3C3.3,40.2,-6.8,43.4,-14.6,40.4C-22.3,37.4,-27.7,28.2,-27.9,19.9C-28.1,11.6,-23.2,4.2,-22.6,-4.9C-22.1,-13.9,-25.9,-24.7,-22.8,-29.7C-19.8,-34.7,-9.9,-34,-0.9,-33C8.2,-31.9,16.4,-30.6,22.1,-26.1Z" width="100%" height="100%" transform="translate(50 50)" stroke-width="0" style="transition: 0.3s;" stroke="url(#sw-gradient)"></path>
              </svg>